#!OML:ASF E:\motion texture\Top Level 1\Subject 1\Session 1\male.ASF
:FULLY-SPECIFIED
:DEGREES
246
root 20.935 17.6929 9.05276 -41.7741 -86.1684 49.955
lowerback 7.92165 1.44432 7.09844
upperback 1.06474 2.51818 6.428
thorax -3.31946 1.09125 2.45509
lowerneck -18.583 -3.6724 -6.01741
upperneck 4.07054 -3.57998 -0.33349
head 4.26344 -1.94492 0.526349
rclavicle 1.19271e-014 2.8625e-014
rhumerus -3.50865 -42.2537 -88.6135
rradius 39.6733
rwrist -30.5816
rhand -8.52971 -57.091
rfingers 7.12502
rthumb 17.3991 -446.332
lclavicle 1.19271e-014 2.8625e-014
lhumerus -4.08668 -5.03629 75.1922
lradius 54.6007
lwrist -16.9643
lhand -15.4638 25.3592
lfingers 7.12502
lthumb 10.7174 55.0658
rfemur -37.8877 -1.17161 14.4731
rtibia 38.6708
rfoot -4.87611 -17.9777
rtoes 4.05919
lfemur -16.1433 -6.77079 -24.5061
ltibia 32.6121
lfoot -11.4985 -9.53882
ltoes -6.73627
247
root 20.7791 17.7088 9.03237 -40.5549 -86.0059 48.7671
lowerback 7.72662 1.51586 7.14926
upperback 0.891962 2.61445 6.46374
thorax -3.3901 1.13591 2.45807
lowerneck -18.5114 -3.72785 -6.02538
upperneck 4.34805 -3.62724 -0.558695
head 4.33723 -1.98621 0.451218
rclavicle -7.95139e-016 1.59028e-014
rhumerus -0.559505 -39.3918 -90.8474
rradius 40.0637
rwrist -30.4086
rhand -8.15174 -55.53
rfingers 7.12502
rthumb 17.7628 -444.739
lclavicle -7.95139e-016 1.59028e-014
lhumerus -4.0639 -6.08206 75.5851
lradius 54.5666
lwrist -17.222
lhand -15.3514 24.9205
lfingers 7.12502
lthumb 10.8259 54.6214
rfemur -37.7453 -1.17927 14.2694
rtibia 36.8351
rfoot -4.84381 -18.4088
rtoes 4.22396
lfemur -15.519 -6.66016 -24.5157
ltibia 32.3886
lfoot -11.297 -9.7327
ltoes -7.28101
248
root 20.6216 17.7226 9.01062 -39.3578 -85.8556 47.5942
lowerback 7.53144 1.58653 7.2037
upperback 0.721462 2.70907 6.49993
thorax -3.45802 1.17951 2.46009
lowerneck -18.4376 -3.78273 -6.02846
upperneck 4.63018 -3.67487 -0.77793
head 4.41219 -2.02768 0.377032
rclavicle -1.90833e-014 9.85972e-014
rhumerus 2.05805 -36.5811 -92.6463
rradius 40.3799
rwrist -30.0908
rhand -7.85089 -53.9544
rfingers 7.12502
rthumb 18.0523 -443.137
lclavicle -1.90833e-014 9.85972e-014
lhumerus -4.09694 -7.08624 75.9483
lradius 54.5451
lwrist -17.4718
lhand -15.2549 24.4618
lfingers 7.12502
lthumb 10.9189 54.1579
rfemur -37.5757 -1.20066 14.0978
rtibia 35.0895
rfoot -4.78531 -18.8337
rtoes 4.45649
lfemur -14.9262 -6.54559 -24.4968
ltibia 32.2322
lfoot -11.0756 -9.93992
ltoes -7.82606
249
root 20.4626 17.7342 8.98745 -38.1384 -85.7156 46.3919
lowerback 7.33608 1.65616 7.26123
upperback 0.553279 2.80175 6.53699
thorax -3.5232 1.22193 2.46192
lowerneck -18.3618 -3.83767 -6.02702
upperneck 4.91547 -3.72374 -0.990643
head 4.48789 -2.06969 0.303948
rclavicle 3.49861e-014 1.17681e-013
rhumerus 4.39732 -33.8534 -94.0797
rradius 40.6259
rwrist -29.6523
rhand -7.61969 -52.4036
rfingers 7.12502
rthumb 18.2747 -441.565
lclavicle 3.49861e-014 1.17681e-013
lhumerus -4.18541 -8.04086 76.2868
lradius 54.5347
lwrist -17.7105
lhand -15.1638 24.0207
lfingers 7.12502
lthumb 11.0067 53.7121
rfemur -37.3818 -1.23948 13.9615
rtibia 33.445
rfoot -4.70447 -19.2535
rtoes 4.7644
lfemur -14.3684 -6.42866 -24.4478
ltibia 32.146
lfoot -10.828 -10.1648
ltoes -8.3636
250
root 20.3018 17.7438 8.96275 -36.87 -85.5862 45.1312
lowerback 7.14251 1.72486 7.32319
upperback 0.387524 2.89296 6.57445
thorax -3.58654 1.26334 2.46221
lowerneck -18.2839 -3.89384 -6.02176
upperneck 5.20413 -3.77549 -1.19413
head 4.5645 -2.11285 0.232764
rclavicle 2.54444e-014 -6.36111e-014
rhumerus 6.50098 -31.2318 -95.208
rradius 40.8054
rwrist -29.1144
rhand -7.45487 -50.901
rfingers 7.12502
rthumb 18.4333 -440.048
lclavicle 2.54444e-014 -6.36111e-014
lhumerus -4.33055 -8.94085 76.6033
lradius 54.5358
lwrist -17.9345
lhand -15.083 23.6023
lfingers 7.12502
lthumb 11.0847 53.2896
rfemur -37.1653 -1.29775 13.8654
rtibia 31.9115
rfoot -4.60788 -19.6637
rtoes 5.14174
lfemur -13.8459 -6.3094 -24.3658
ltibia 32.1311
lfoot -10.5473 -10.4105
ltoes -8.88765
251
root 20.1393 17.7513 8.93651 -35.5036 -85.4665 43.7626
lowerback 6.95032 1.79174 7.39148
upperback 0.224529 2.98154 6.61294
thorax -3.64742 1.30315 2.46072
lowerneck -18.207 -3.95079 -6.01448
upperneck 5.49828 -3.82908 -1.38618
head 4.64316 -2.15653 0.164476
rclavicle -3.81667e-014 2.54444e-014
rhumerus 8.40121 -28.7267 -96.0808
rradius 40.9268
rwrist -28.5027
rhand -7.34402 -49.4813
rfingers 7.12502
rthumb 18.5399 -438.618
lclavicle -3.81667e-014 2.54444e-014
lhumerus -4.53262 -9.77827 76.9014
lradius 54.5462
lwrist -18.1429
lhand -15.0128 23.2065
lfingers 7.12502
lthumb 11.1524 52.8901
rfemur -36.9275 -1.37872 13.8145
rtibia 30.4939
rfoot -4.49673 -20.0639
rtoes 5.58966
lfemur -13.3609 -6.19045 -24.248
ltibia 32.1896
lfoot -10.2307 -10.6778
ltoes -9.39912
252
root 19.975 17.7568 8.90866 -34.0209 -85.3538 42.2665
lowerback 6.76071 1.85627 7.46501
upperback 0.0644336 3.06686 6.65252
thorax -3.70641 1.34104 2.45813
lowerneck -18.1282 -4.00941 -6.00358
upperneck 5.79391 -3.88637 -1.56784
head 4.72217 -2.20156 0.0984199
rclavicle -4.25399e-014 -1.27222e-013
rhumerus 10.1227 -26.3451 -96.7394
rradius 40.9984
rwrist -27.84
rhand -7.28115 -48.1618
rfingers 7.12502
rthumb 18.6004 -437.293
lclavicle -4.25399e-014 -1.27222e-013
lhumerus -4.79273 -10.5492 77.1846
lradius 54.564
lwrist -18.3354
lhand -14.9568 22.8352
lfingers 7.12502
lthumb 11.2064 52.5159
rfemur -36.6684 -1.48518 13.8106
rtibia 29.1945
rfoot -4.37097 -20.4523
rtoes 6.10515
lfemur -12.9142 -6.07408 -24.0939
ltibia 32.3243
lfoot -9.87678 -10.9668
ltoes -9.88745
253
root 19.809 17.7603 8.87925 -32.4177 -85.2511 40.6379
lowerback 6.57444 1.91998 7.54725
upperback -0.092117 3.15117 6.69295
thorax -3.76306 1.37807 2.45201
lowerneck -18.0497 -4.07025 -5.99064
upperneck 6.09251 -3.94781 -1.73673
head 4.80239 -2.24803 0.0354832
rclavicle 1.27222e-014 -1.27222e-014
rhumerus 11.6843 -24.0915 -97.2188
rradius 41.0297
rwrist -27.1466
rhand -7.25764 -46.953
rfingers 7.12502
rthumb 18.623 -436.082
lclavicle 1.27222e-014 -1.27222e-014
lhumerus -5.10914 -11.2511 77.4553
lradius 54.5857
lwrist -18.5094
lhand -14.9118 22.4925
lfingers 7.12502
lthumb 11.2498 52.1709
rfemur -36.3905 -1.61539 13.8582
rtibia 28.018
rfoot -4.23745 -20.8257
rtoes 6.69028
lfemur -12.5074 -5.95867 -23.9009
ltibia 32.5359
lfoot -9.48 -11.2746
ltoes -10.3364
254
root 19.6411 17.7622 8.84818 -30.662 -85.155 38.8435
lowerback 6.39174 1.98178 7.63793
upperback -0.243111 3.2328 6.73523
thorax -3.81545 1.41345 2.44377
lowerneck -17.9777 -4.13373 -5.97849
upperneck 6.39476 -4.01306 -1.89136
head 4.88508 -2.29576 -0.0235375
rclavicle 6.36111e-015 3.81667e-014
rhumerus 13.104 -21.9662 -97.5504
rradius 41.0292
rwrist -26.4351
rhand -7.26482 -45.8569
rfingers 7.12502
rthumb 18.6161 -434.986
lclavicle 6.36111e-015 3.81667e-014
lhumerus -5.47869 -11.8787 77.7159
lradius 54.6078
lwrist -18.6637
lhand -14.8773 22.1818
lfingers 7.12502
lthumb 11.2831 51.8583
rfemur -36.093 -1.77054 13.9593
rtibia 26.9649
rfoot -4.099 -21.1822
rtoes 7.33578
lfemur -12.14 -5.84756 -23.6676
ltibia 32.8251
lfoot -9.0349 -11.598
ltoes -10.7217
